<?xml version="1.0" encoding="UTF-8" standalone="no"?>
<svg
   xmlns:dc="http://purl.org/dc/elements/1.1/"
   xmlns:cc="http://creativecommons.org/ns#"
   xmlns:rdf="http://www.w3.org/1999/02/22-rdf-syntax-ns#"
   xmlns:svg="http://www.w3.org/2000/svg"
   xmlns="http://www.w3.org/2000/svg"
   xmlns:sodipodi="http://sodipodi.sourceforge.net/DTD/sodipodi-0.dtd"
   xmlns:inkscape="http://www.inkscape.org/namespaces/inkscape"
   style="fill-rule:evenodd"
   id="svg1586"
   version="1.1"
   viewBox="0 0 600 599.99999"
   height="600pt"
   width="600pt"
   sodipodi:docname="easy-to-reading.svg"
   inkscape:version="0.92.2 5c3e80d, 2017-08-06">
  <sodipodi:namedview
     pagecolor="#ffffff"
     bordercolor="#666666"
     borderopacity="1"
     objecttolerance="10"
     gridtolerance="10"
     guidetolerance="10"
     inkscape:pageopacity="0"
     inkscape:pageshadow="2"
     inkscape:window-width="640"
     inkscape:window-height="480"
     id="namedview856"
     showgrid="false"
     inkscape:zoom="0.5871875"
     inkscape:cx="437.38728"
     inkscape:cy="670.3849"
     inkscape:current-layer="svg1586" />
  <metadata
     id="metadata1592">
    <rdf:RDF>
      <cc:Work
         rdf:about="">
        <dc:format>image/svg+xml</dc:format>
        <dc:type
           rdf:resource="http://purl.org/dc/dcmitype/StillImage" />
        <dc:title />
      </cc:Work>
    </rdf:RDF>
  </metadata>
  <defs
     id="defs1590" />
  <g
     id="g1582"
     transform="matrix(3.5907581,0,0,3.5907581,-230.93676,-3977.6067)"
     style="fill:#505050;fill-opacity:1">
    <g
       id="g1578"
       style="fill:#505050;fill-opacity:1">
      <path
         inkscape:connector-curvature="0"
         style="fill:#505050;fill-opacity:1;stroke:none"
         d="m 211.009,1162.34 c 0,5.37 -4.363,9.74 -9.74,9.74 -5.382,0 -9.742,-4.37 -9.742,-9.74 0,-5.38 4.36,-9.74 9.742,-9.74 5.377,0 9.74,4.36 9.74,9.74 z"
         id="path1574" />
      <path
         inkscape:connector-curvature="0"
         style="fill:#505050;fill-opacity:1;stroke:none"
         d="m 214.703,1215.34 12.755,-14.74 c 0.008,-0.01 0.016,-0.02 0.023,-0.03 l 0.022,-0.02 c 0.056,-0.08 0.103,-0.15 0.154,-0.22 0.035,-0.05 0.073,-0.1 0.105,-0.15 0.048,-0.07 0.089,-0.15 0.131,-0.22 0.034,-0.06 0.07,-0.12 0.101,-0.18 0.041,-0.08 0.074,-0.16 0.11,-0.24 0.026,-0.06 0.054,-0.12 0.079,-0.18 0.033,-0.08 0.06,-0.17 0.088,-0.25 0.018,-0.06 0.04,-0.12 0.056,-0.17 0.025,-0.09 0.043,-0.18 0.064,-0.27 0.012,-0.06 0.027,-0.11 0.039,-0.17 0.014,-0.09 0.024,-0.17 0.035,-0.26 0.008,-0.06 0.018,-0.13 0.023,-0.19 0.008,-0.08 0.008,-0.16 0.011,-0.24 0.002,-0.07 0.007,-0.14 0.006,-0.21 -0.002,-0.07 -0.007,-0.14 -0.011,-0.21 -0.005,-0.08 -0.008,-0.16 -0.017,-0.24 -0.006,-0.06 -0.017,-0.12 -0.027,-0.18 -0.012,-0.09 -0.025,-0.18 -0.044,-0.26 -0.011,-0.06 -0.026,-0.11 -0.039,-0.16 -0.022,-0.1 -0.045,-0.19 -0.074,-0.28 -0.016,-0.05 -0.034,-0.1 -0.052,-0.15 -0.032,-0.09 -0.063,-0.18 -0.101,-0.27 -0.023,-0.05 -0.05,-0.11 -0.075,-0.16 -0.038,-0.08 -0.076,-0.16 -0.12,-0.25 -0.033,-0.06 -0.072,-0.12 -0.108,-0.18 -0.041,-0.07 -0.08,-0.14 -0.126,-0.2 -0.048,-0.07 -0.102,-0.14 -0.153,-0.21 -0.041,-0.05 -0.079,-0.11 -0.123,-0.16 -0.059,-0.07 -0.124,-0.14 -0.189,-0.21 -0.039,-0.04 -0.075,-0.08 -0.117,-0.13 l -9.979,-10.91 c -3.52,-4.4 -7.977,-5.96 -15.245,-8.11 -7.945,-2.34 -21.547,-7.6 -21.547,-7.6 l 9.567,-7.88 c 1.674,-1.26 2.01,-3.64 0.751,-5.31 -1.259,-1.67 -3.634,-2.01 -5.307,-0.75 l -15.927,10.92 c -0.068,0.05 -0.138,0.09 -0.205,0.14 v 0 c -0.003,0 -0.004,0 -0.007,0.01 -0.119,0.09 -0.235,0.18 -0.347,0.29 -0.04,0.03 -0.075,0.07 -0.114,0.11 -0.069,0.07 -0.139,0.14 -0.204,0.21 -0.069,0.08 -0.134,0.16 -0.197,0.24 -0.029,0.04 -0.06,0.07 -0.087,0.11 -0.28,0.38 -0.497,0.8 -0.647,1.24 -0.026,0.07 -0.046,0.15 -0.068,0.23 -0.019,0.07 -0.041,0.13 -0.056,0.19 -0.024,0.11 -0.041,0.21 -0.058,0.31 -0.008,0.05 -0.019,0.09 -0.025,0.14 -0.013,0.09 -0.018,0.18 -0.026,0.27 -0.005,0.06 -0.012,0.12 -0.015,0.18 -0.003,0.07 0,0.14 0.001,0.21 0,0.08 -0.002,0.16 0.003,0.25 0.003,0.04 0.01,0.09 0.014,0.13 0.009,0.11 0.018,0.21 0.035,0.32 0.003,0.02 0.009,0.04 0.013,0.06 0.071,0.42 0.196,0.83 0.383,1.22 0.198,0.42 0.459,0.8 0.778,1.15 0.031,0.03 0.065,0.06 0.097,0.1 0.074,0.07 0.147,0.15 0.226,0.22 0.07,0.06 0.144,0.12 0.217,0.17 0.046,0.04 0.088,0.08 0.136,0.11 0.114,0.09 0.233,0.16 0.353,0.23 0.01,0.01 0.019,0.02 0.029,0.02 l 12.302,8 c 0,0 3.259,2.08 2.819,5.82 -0.841,7.15 -3.612,25.39 -2.005,38.75 l 1.55,18.29 c 0.031,0.77 0.211,1.49 0.506,2.15 l 3.525,22.43 c 0.293,2.61 2.638,4.48 5.243,4.19 2.603,-0.3 4.478,-2.64 4.185,-5.25 l -1.659,-24.42 c -0.029,-0.26 -0.081,-0.51 -0.141,-0.75 l 0.39,-16.36 3.956,19.58 c 0.021,0.14 0.041,0.29 0.073,0.44 l 6.539,24.64 c 0.583,2.67 3.217,4.36 5.883,3.77 2.666,-0.58 4.354,-3.22 3.772,-5.88 l -4.254,-24.57 c -0.004,-0.05 -0.006,-0.09 -0.012,-0.14 l -1.94,-19.03 c -0.333,-2.18 -0.436,-4.92 -0.396,-7.87 1.577,0.81 3.555,0.42 4.696,-1.02 z m 2.991,-17.08 -7.309,10.12 c 0.6,-8.06 1.688,-15.39 1.688,-15.39 z"
         id="path1576" />
    </g>
    <path
       inkscape:connector-curvature="0"
       style="fill:#505050;fill-opacity:1;stroke:none"
       d="m 222.39,1140.38 c 0.119,-0.28 0.177,-0.58 0.168,-0.91 -0.038,-1.22 -1.035,-2.43 -2.42,-2.89 -0.132,-0.04 -0.274,-0.09 -0.425,-0.14 -0.765,-1.62 -2.147,-2.79 -3.407,-3.19 -0.005,0 -0.01,-0.01 -0.015,-0.01 -0.992,-0.31 -1.863,-0.14 -2.389,0.48 -0.371,0.44 -0.566,0.95 -0.587,1.51 -1.735,0.69 -2.125,1.74 -2.104,2.58 0.013,0.51 0.182,1.04 0.468,1.55 -0.197,0.25 -0.341,0.52 -0.424,0.81 -0.15,0.52 -0.181,1.42 0.715,2.5 -0.416,0.39 -0.669,0.93 -0.709,1.57 -0.032,0.5 0.086,1.03 0.349,1.53 -0.321,0.29 -0.556,0.67 -0.575,1.12 -0.021,0.55 0.298,1.37 1.945,2.12 0.013,0 0.025,0.01 0.038,0.01 0.153,0.05 0.323,-0.02 0.391,-0.17 0.074,-0.17 0.003,-0.36 -0.16,-0.43 -0.224,-0.1 -0.426,-0.21 -0.604,-0.32 0.039,0 0.076,-0.01 0.112,-0.03 0.396,-0.21 0.772,-0.41 1.13,-0.62 0.085,0.02 0.172,0.04 0.261,0.05 l 0.239,0.04 0.105,-0.22 c 0.056,-0.11 0.102,-0.22 0.142,-0.32 0.166,-0.11 0.328,-0.21 0.485,-0.32 0.536,0.41 1.02,0.25 1.226,0.15 0.375,-0.19 0.668,-0.58 0.84,-1.06 0.746,0.31 1.491,0.41 2.089,0.21 0.554,-0.19 1.296,-0.75 1.178,-2.39 1.138,-0.22 1.653,-0.79 1.881,-1.2 0.327,-0.58 0.336,-1.31 0.057,-2.01 z m -1.552,-1 c 0.185,0.14 0.348,0.3 0.485,0.47 0.136,0.16 0.25,0.33 0.342,0.5 -0.196,0.29 -0.507,0.52 -0.918,0.68 -0.128,0.06 -0.272,0.08 -0.431,0.09 0.106,-0.12 0.189,-0.25 0.254,-0.38 0.21,-0.39 0.296,-0.86 0.268,-1.36 z m 1.072,0.11 c 0.001,0.02 0.001,0.04 0,0.06 -0.028,-0.04 -0.059,-0.08 -0.09,-0.12 -0.294,-0.35 -0.68,-0.68 -1.143,-0.94 -0.124,-0.41 -0.316,-0.83 -0.572,-1.24 1.011,0.39 1.779,1.33 1.805,2.24 z m -2.184,3.53 c -0.055,0.01 -0.111,0.01 -0.166,0.01 -0.113,-0.15 -0.225,-0.29 -0.319,-0.4 0.099,-0.17 0.189,-0.33 0.271,-0.49 0.093,0.32 0.163,0.61 0.214,0.88 z m -0.073,-4.25 c 0.032,0.55 -0.022,1.1 -0.158,1.64 -0.447,-0.76 -1.033,-1.31 -1.678,-1.7 0.681,-0.14 1.299,-0.1 1.836,0.06 z m -3.269,0.45 c 0.173,-0.08 0.358,-0.16 0.555,-0.24 0.741,0.31 1.519,0.87 2.068,1.88 -0.833,-0.32 -1.776,-0.91 -2.623,-1.64 z m 2.087,2.11 c -0.218,0.03 -0.453,0.03 -0.707,0.02 -1.027,-0.04 -1.996,-0.59 -2.513,-1.39 0.155,-0.14 0.334,-0.28 0.535,-0.41 0.828,0.74 1.778,1.38 2.685,1.78 z m 0.439,0.58 c -0.041,0.08 -0.084,0.16 -0.128,0.23 -0.07,-0.06 -0.14,-0.12 -0.211,-0.17 0.119,-0.01 0.232,-0.03 0.339,-0.06 z m 0.418,-4.64 c 0.018,0.02 0.034,0.04 0.051,0.07 0.08,0.23 0.144,0.48 0.191,0.73 -0.735,-0.16 -1.584,-0.14 -2.514,0.18 -0.04,0.02 -0.079,0.03 -0.117,0.04 -0.596,-0.22 -1.208,-0.31 -1.785,-0.32 -0.022,-0.03 -0.044,-0.06 -0.065,-0.08 0.069,-0.15 0.158,-0.3 0.263,-0.44 0.854,-1.12 2.405,-0.9 3.688,-0.54 0.104,0.12 0.2,0.24 0.288,0.36 z m -4.865,6.23 c -0.038,0.09 -0.073,0.19 -0.104,0.29 -0.114,-0.06 -0.217,-0.12 -0.308,-0.18 -0.415,-0.27 -0.776,-0.55 -1.078,-0.83 0.247,-0.1 0.543,-0.16 0.893,-0.18 0.05,0 0.1,0 0.149,0 0.108,0.31 0.26,0.61 0.448,0.9 z m 0.267,-0.86 c 0.07,0.02 0.138,0.03 0.206,0.04 -0.038,0.05 -0.078,0.1 -0.114,0.16 -0.033,-0.07 -0.064,-0.13 -0.092,-0.2 z m 0.239,-3.28 c -0.071,-0.24 -0.099,-0.48 -0.083,-0.71 0.134,0.15 0.275,0.3 0.422,0.45 -0.122,0.08 -0.236,0.17 -0.339,0.26 z m -1.045,1.56 c -0.569,-0.46 -1.057,-0.97 -1.416,-1.48 0.432,-0.36 1.04,-0.63 1.728,-0.75 -0.012,0.39 0.064,0.79 0.23,1.17 -0.286,0.36 -0.454,0.72 -0.542,1.06 z m 0.746,-3.61 c -0.29,-0.45 -0.59,-1.04 -0.678,-1.64 0.337,-0.11 0.685,-0.19 1.019,-0.26 1.142,-0.22 2.172,0.09 2.994,0.62 -1.149,-0.16 -2.368,-0.02 -3.169,1.03 -0.06,0.08 -0.115,0.16 -0.166,0.25 z m -0.275,-3.17 c 0.477,-0.56 1.266,-0.42 1.703,-0.28 0.003,0 0.007,0 0.01,0 0.767,0.25 1.584,0.82 2.242,1.62 -0.946,-0.61 -2.136,-0.96 -3.464,-0.7 -0.324,0.06 -0.62,0.13 -0.892,0.21 0.051,-0.29 0.176,-0.58 0.401,-0.85 z m -2.537,3.65 c -0.022,-0.9 0.649,-1.5 1.512,-1.88 0.123,0.64 0.444,1.33 0.962,2.05 0.008,0.01 0.016,0.02 0.023,0.03 -0.003,0.01 -0.005,0.02 -0.007,0.03 -0.858,0.11 -1.618,0.42 -2.18,0.86 -0.191,-0.38 -0.301,-0.74 -0.31,-1.09 z m 0.019,2.55 c 0.04,-0.13 0.1,-0.27 0.18,-0.39 0.461,0.62 1.081,1.22 1.784,1.74 0.004,0.09 0.011,0.18 0.021,0.26 -0.007,0 -0.013,0.01 -0.02,0.01 -0.51,0.01 -0.965,0.13 -1.346,0.33 -0.575,-0.67 -0.793,-1.34 -0.619,-1.95 z m 0.029,3.94 c 0.026,-0.4 0.18,-0.82 0.508,-1.13 0.336,0.32 0.757,0.65 1.282,1 0.141,0.09 0.322,0.19 0.53,0.29 -0.024,0.24 -0.016,0.49 0.026,0.74 -0.415,-0.23 -1.014,-0.23 -1.655,0 -0.152,0.06 -0.309,0.13 -0.463,0.21 -0.175,-0.36 -0.25,-0.74 -0.228,-1.11 z m 0.552,3.22 c -0.138,0.07 -0.202,0.22 -0.162,0.37 -0.413,-0.32 -0.626,-0.64 -0.613,-0.96 0.008,-0.21 0.125,-0.42 0.297,-0.6 0.284,0.34 0.649,0.63 1.096,0.85 -0.202,0.11 -0.407,0.23 -0.618,0.34 z m 1.332,-0.75 c -0.567,-0.17 -0.986,-0.46 -1.296,-0.82 0.106,-0.05 0.215,-0.1 0.323,-0.14 0.533,-0.19 1.04,-0.18 1.237,0.04 0.127,0.14 0.139,0.4 0.041,0.74 -0.1,0.06 -0.201,0.12 -0.305,0.18 z m 1.796,-4.72 c -0.38,-0.2 -0.749,-0.43 -1.097,-0.68 0.034,-0.31 0.143,-0.61 0.325,-0.88 0.365,0.5 0.875,0.91 1.459,1.17 -0.249,0.1 -0.481,0.23 -0.687,0.39 z m 0.009,0.87 c 0.536,0.26 0.894,0.69 1.044,1.27 0.037,0.13 0.058,0.28 0.067,0.42 -0.152,-0.04 -0.306,-0.08 -0.457,-0.12 -0.387,-0.29 -0.745,-0.64 -1.038,-1.02 0.106,-0.2 0.236,-0.38 0.384,-0.55 z m -0.388,2.93 c -0.235,-0.34 -0.339,-0.72 -0.338,-1.12 0.338,0.13 0.711,0.25 1.1,0.36 0.04,0.03 0.082,0.06 0.123,0.09 -0.28,0.23 -0.574,0.45 -0.885,0.67 z m 0.843,0.42 c -0.112,0.06 -0.224,0.07 -0.347,0.02 0.297,-0.21 0.575,-0.42 0.836,-0.64 -0.122,0.3 -0.297,0.52 -0.489,0.62 z m 1.235,-2.17 c -0.006,-0.03 -0.012,-0.05 -0.019,-0.08 -0.047,-0.18 -0.133,-0.42 -0.287,-0.68 0.273,0.08 0.545,0.15 0.812,0.21 -0.159,0.18 -0.327,0.37 -0.506,0.55 z m -1.018,-1.72 c 0.499,-0.27 1.317,-0.47 2.164,0.34 -0.057,0.08 -0.117,0.17 -0.178,0.25 -0.01,0 -0.02,0 -0.03,-0.01 -0.644,-0.09 -1.309,-0.29 -1.956,-0.58 z m 3.141,2.21 c -0.245,0.28 -0.992,0.3 -1.872,0.17 0.382,-0.37 0.714,-0.74 1.003,-1.1 0.237,0.02 0.462,0.04 0.672,0.04 0.259,0.42 0.333,0.74 0.197,0.89 z m 2.36,-2.49 c -0.243,0.43 -0.725,0.73 -1.399,0.86 -0.062,-0.35 -0.159,-0.74 -0.295,-1.18 0.334,0.02 0.644,-0.02 0.913,-0.12 0.37,-0.15 0.682,-0.35 0.927,-0.59 0.066,0.37 0.02,0.73 -0.146,1.03 z"
       id="path1580" />
  </g>
  <g
     id="g1857"
     transform="translate(-10.138263,-170.28853)"
     style="fill:#505050;fill-opacity:1">
    <g
       aria-label="i"
       transform="matrix(3.9502791,-0.85545991,0.85545991,3.9502791,-671.71589,-1204.0165)"
       style="font-style:normal;font-variant:normal;font-weight:normal;font-stretch:normal;font-size:85.33333588px;line-height:125%;font-family:'DejaVu Sans Mono';-inkscape-font-specification:'DejaVu Sans Mono';letter-spacing:0px;word-spacing:0px;fill:#505050;fill-opacity:1;stroke:none;stroke-width:1px;stroke-linecap:butt;stroke-linejoin:miter;stroke-opacity:1"
       id="flowRoot1693">
      <path
         d="m 108.04202,400.61675 h -2.90133 c -5.205336,0.93867 -8.021336,1.36534 -12.544002,1.70667 v 2.56 l 1.706666,0.17067 c 4.437334,0.42666 5.632,1.96266 5.632,7.08266 v 20.05334 c 0,4.69333 -1.536,6.656 -5.290666,7.08267 l -2.133334,0.17066 v 2.56 h 22.869336 v -2.56 l -2.048,-0.17066 c -3.84,-0.42667 -5.29067,-2.38934 -5.29067,-7.08267 z m -3.92533,-14.42133 c -2.90134,0 -5.205336,2.304 -5.205336,5.12 0,2.90133 2.303996,5.20533 5.119996,5.20533 2.90134,0 5.20534,-2.304 5.20534,-5.12 0,-2.816 -2.304,-5.20533 -5.12,-5.20533 z"
         style="font-style:normal;font-variant:normal;font-weight:normal;font-stretch:normal;font-family:'URW Bookman L';-inkscape-font-specification:'URW Bookman L';fill:#505050;fill-opacity:1"
         id="path876" />
    </g>
    <g
       aria-label="1"
       transform="matrix(3.4594952,0.50616966,-0.50616966,3.4594952,-2.6770328,-1101.1015)"
       style="font-style:normal;font-variant:normal;font-weight:normal;font-stretch:normal;font-size:85.33333588px;line-height:125%;font-family:'DejaVu Sans Mono';-inkscape-font-specification:'DejaVu Sans Mono';letter-spacing:0px;word-spacing:0px;fill:#505050;fill-opacity:1;stroke:none;stroke-width:1px;stroke-linecap:butt;stroke-linejoin:miter;stroke-opacity:1"
       id="flowRoot1693-4">
      <path
         d="m 123.14602,383.89142 h -2.73066 c -5.54667,1.28 -7.33867,1.62133 -15.87201,2.64533 v 2.56 l 3.41334,0.17067 c 6.22933,0.256 7.08266,1.28 7.08266,8.02133 v 32.68267 c 0,4.608 -0.256,5.97334 -1.10933,6.82667 -1.36533,1.36533 -3.92533,2.304 -6.656,2.47467 l -2.816,0.17066 v 2.56 h 29.09867 v -2.56 l -2.73067,-0.17066 c -6.48533,-0.42667 -7.68,-1.792 -7.68,-9.13067 z"
         style="font-style:normal;font-variant:normal;font-weight:normal;font-stretch:normal;font-family:'URW Bookman L';-inkscape-font-specification:'URW Bookman L';fill:#505050;fill-opacity:1"
         id="path879" />
    </g>
    <g
       aria-label="l"
       transform="matrix(3.6477013,-0.39684653,0.39684653,3.6477013,-259.2123,-1170.3847)"
       style="font-style:normal;font-variant:normal;font-weight:normal;font-stretch:normal;font-size:85.33333588px;line-height:125%;font-family:'DejaVu Sans Mono';-inkscape-font-specification:'DejaVu Sans Mono';letter-spacing:0px;word-spacing:0px;fill:#505050;fill-opacity:1;stroke:none;stroke-width:1px;stroke-linecap:butt;stroke-linejoin:miter;stroke-opacity:1"
       id="flowRoot1693-4-4">
      <path
         d="m 107.95669,380.81942 h -3.41334 c -4.26666,1.70667 -6.229329,2.21867 -12.031996,2.90133 v 2.64534 l 1.792,0.17066 c 4.608,0.42667 5.546667,1.96267 5.546667,9.55734 v 36.096 c 0,4.69333 -1.450667,6.656 -5.290667,7.08267 l -2.048,0.17066 v 2.56 h 22.698666 v -2.56 l -1.96267,-0.17066 c -3.84,-0.42667 -5.29066,-2.38934 -5.29066,-7.08267 z"
         style="font-style:normal;font-variant:normal;font-weight:normal;font-stretch:normal;font-family:'URW Bookman L';-inkscape-font-specification:'URW Bookman L';fill:#505050;fill-opacity:1"
         id="path882" />
    </g>
  </g>
</svg>
