<?xml version="1.0" encoding="UTF-8" standalone="no"?>
<svg
   xmlns:dc="http://purl.org/dc/elements/1.1/"
   xmlns:cc="http://creativecommons.org/ns#"
   xmlns:rdf="http://www.w3.org/1999/02/22-rdf-syntax-ns#"
   xmlns:svg="http://www.w3.org/2000/svg"
   xmlns="http://www.w3.org/2000/svg"
   xmlns:sodipodi="http://sodipodi.sourceforge.net/DTD/sodipodi-0.dtd"
   xmlns:inkscape="http://www.inkscape.org/namespaces/inkscape"
   style="fill-rule:evenodd"
   id="svg1850"
   version="1.1"
   viewBox="0 0 600 599.99999"
   height="600pt"
   width="600pt"
   sodipodi:docname="easy-to-writing.svg"
   inkscape:version="0.92.2 5c3e80d, 2017-08-06">
  <sodipodi:namedview
     pagecolor="#ffffff"
     bordercolor="#666666"
     borderopacity="1"
     objecttolerance="10"
     gridtolerance="10"
     guidetolerance="10"
     inkscape:pageopacity="0"
     inkscape:pageshadow="2"
     inkscape:window-width="640"
     inkscape:window-height="480"
     id="namedview921"
     showgrid="false"
     inkscape:zoom="0.834386"
     inkscape:cx="368.95153"
     inkscape:cy="379.2179"
     inkscape:current-layer="svg1850" />
  <metadata
     id="metadata1856">
    <rdf:RDF>
      <cc:Work
         rdf:about="">
        <dc:format>image/svg+xml</dc:format>
        <dc:type
           rdf:resource="http://purl.org/dc/dcmitype/StillImage" />
        <dc:title />
        <dc:title />
      </cc:Work>
    </rdf:RDF>
  </metadata>
  <defs
     id="defs1854" />
  <g
     id="g1676"
     transform="matrix(-3.965735,0,0,3.965735,1904.5087,-3871.3042)"
     style="fill:#505050;fill-opacity:1">
    <path
       inkscape:connector-curvature="0"
       style="fill:#505050;fill-opacity:1;stroke:none"
       d="m 418.366,1037.16 c 4.684,2.64 10.629,0.99 13.273,-3.69 2.646,-4.69 0.994,-10.63 -3.691,-13.27 -4.683,-2.65 -10.625,-1 -13.273,3.69 -2.643,4.68 -0.99,10.62 3.691,13.27 z"
       id="path1672" />
    <path
       inkscape:connector-curvature="0"
       style="fill:#505050;fill-opacity:1;stroke:none"
       d="m 426.827,1060.64 7.5,-4.96 7.351,10.9 -12.87,0.99 c -6.27,0.66 -9.241,5.28 -7.59,11.88 l 7.167,24.31 c 0.78,2.49 3.21,4.39 5.941,3.73 2.658,-0.64 4.283,-2.94 3.852,-5.48 l -3.47,-20.53 h 14.231 c 7.589,0.66 16.169,-7.97 9.899,-19.52 -0.158,-0.19 -10.89,-18.48 -10.89,-18.48 -3.96,-6.6 -11.88,-6.93 -17.49,-0.99 l -6.6,7.26 -1.724,-7.24 c -0.428,-2.19 -2.541,-3.59 -4.721,-3.15 -2.178,0.45 -3.439,2.56 -3.168,4.77 l 1.694,12.55 c 0.882,5.79 6.599,6.93 10.888,3.96 z"
       id="path1674" />
  </g>
  <path
     inkscape:connector-curvature="0"
     style="fill:#505050;fill-opacity:1;stroke:none;stroke-width:4.71992731"
     d="m 305.02407,141.86936 c 1.06984,-0.95786 2.32187,-1.67363 3.80996,-2.13572 5.50849,-1.6872 12.43203,0.92542 16.59531,6.41312 0.37962,0.52885 0.81916,1.08719 1.27239,1.6857 8.40218,0.95203 15.73301,5.34562 19.43798,10.36615 0.008,0.0223 0.06,0.0295 0.0676,0.0517 2.89492,3.96017 3.46116,8.11035 1.49176,11.40408 -1.40111,2.32727 -3.38285,3.97475 -5.85284,4.92097 -0.4419,8.80181 -4.53943,12.14246 -8.32433,13.3272 -2.29833,0.71823 -4.92348,0.76985 -7.63738,0.26837 -0.81708,1.26064 -1.80419,2.31499 -2.97351,3.12719 -2.0949,1.46169 -6.06872,2.97008 -12.2577,0.61082 -1.10925,2.45222 -3.13672,4.40449 -5.93523,5.55737 -2.18516,0.90401 -4.73269,1.18352 -7.36688,0.76955 -0.80706,1.87557 -2.14711,3.50389 -4.12869,4.27374 -2.42531,0.93097 -6.57444,0.75389 -12.43217,-5.46294 -0.0199,-0.0581 -0.0828,-0.0965 -0.10256,-0.15456 -0.45626,-0.60746 -0.40226,-1.47354 0.16437,-2.00565 0.64689,-0.58938 1.60387,-0.56132 2.1647,0.0603 0.78772,0.84859 1.58664,1.58363 2.34904,2.21148 -0.0593,-0.17426 -0.071,-0.35477 -0.0364,-0.54606 0.33549,-2.08888 0.65673,-4.07318 1.05005,-5.99227 -0.21876,-0.34931 -0.44052,-0.70756 -0.62064,-1.08999 l -0.54251,-1.00691 0.82307,-0.80399 c 0.40624,-0.41761 0.82767,-0.79056 1.21357,-1.12148 0.23878,-0.90909 0.43897,-1.78507 0.69145,-2.65392 -2.64762,-1.77068 -2.66948,-4.1766 -2.53625,-5.24919 0.27807,-1.96462 1.57452,-3.86728 3.45726,-5.36635 -2.52051,-2.8611 -4.10126,-6.03738 -4.11791,-9.01354 0.006,-2.7643 1.37816,-6.93177 8.88491,-8.90082 -0.74924,-5.41918 1.0135,-8.58769 2.49825,-10.23039 2.09356,-2.34378 5.34133,-3.49513 8.89343,-3.3141 z m 6.83006,5.41186 c -0.90708,-0.61344 -1.87003,-1.09816 -2.83806,-1.45148 -0.92184,-0.36409 -1.85489,-0.61465 -2.75444,-0.76693 -0.99731,1.31709 -1.55154,3.05667 -1.64079,5.13645 -0.0732,0.6632 0.0566,1.33699 0.25392,2.06259 0.37481,-0.65624 0.82928,-1.22493 1.31114,-1.71321 1.42278,-1.53185 3.39173,-2.63146 5.66823,-3.26742 z m -2.12314,-4.62202 c -0.0912,0.0249 -0.18061,0.0554 -0.26806,0.0913 0.22132,0.0642 0.44721,0.14182 0.67311,0.21946 2.01121,0.78079 4.07309,2.00304 5.93945,3.67588 2.02054,-0.0701 4.18925,0.14845 6.41067,0.66814 -3.28126,-3.92329 -8.64995,-5.92376 -12.75517,-4.6548 z m -12.44694,15.13061 c 0.039,0.26097 0.12427,0.51116 0.20799,0.75689 0.84217,0.27653 1.63811,0.56385 2.27264,0.81639 0.60885,-0.70108 1.18669,-1.34672 1.77671,-1.95661 -1.57123,0.0716 -2.97342,0.20025 -4.25734,0.38334 z m 19.09912,-6.14279 c -2.50598,0.69421 -4.88108,1.77262 -7.08664,3.20217 4.07588,0.84029 7.4251,2.62125 10.14928,4.90934 -0.41106,-3.25565 -1.53043,-5.95585 -3.06264,-8.11151 z m 2.96527,15.29008 c 0.094,-0.89471 0.16994,-1.843 0.22749,-2.8449 -2.51287,-2.83878 -6.19904,-5.46233 -11.54711,-6.3778 2.6976,3.23458 6.76893,6.54963 11.31962,9.2227 z m -12.60364,-6.11259 c 0.1978,1.01964 0.55549,2.06957 0.98677,3.18916 1.7419,4.52752 5.6741,8.01962 10.03523,9.11176 0.38956,-0.90559 0.74259,-1.91841 1.01746,-3.0143 -4.56644,-2.57298 -8.87181,-5.84319 -12.03947,-9.28661 z m -3.25949,-1.07853 c -0.29501,0.30495 -0.58698,0.61882 -0.83276,0.92196 0.37461,0.22143 0.74924,0.44283 1.08069,0.68396 -0.13645,-0.54692 -0.21909,-1.08219 -0.24793,-1.60592 z m 20.09418,-8.93009 c -0.11674,-0.0498 -0.23046,-0.091 -0.39036,-0.1213 -1.14936,-0.008 -2.36371,0.0872 -3.55219,0.25778 1.83359,3.04027 3.0365,6.86386 3.02237,11.50596 -0.0285,0.20915 -0.0138,0.3986 -6.2e-4,0.5836 1.89008,2.32792 3.2237,4.9252 4.14664,7.48788 0.16751,0.0526 0.33503,0.10521 0.45633,0.16864 0.56516,-0.5366 1.09983,-1.16254 1.56552,-1.84474 3.70401,-5.52021 0.36034,-12.11487 -3.20092,-17.29905 -0.69445,-0.282 -1.37669,-0.52825 -2.04677,-0.73877 z m -20.42914,31.21839 c -0.34424,0.30677 -0.73775,0.61534 -1.13734,0.90607 0.4416,0.41799 0.86642,0.78684 1.27301,1.10207 1.83796,1.44316 3.63842,2.62983 5.34907,3.55292 0.0709,-1.25575 -0.11165,-2.66954 -0.55505,-4.2637 -0.0761,-0.2234 -0.15221,-0.44678 -0.22679,-0.66569 -1.54939,-0.0104 -3.12107,-0.23316 -4.7029,-0.63167 z m 3.43588,-2.5019 c -0.19591,-0.28231 -0.34407,-0.5709 -0.49225,-0.85947 -0.16556,0.24586 -0.32806,0.50069 -0.54133,0.75285 0.36298,0.0409 0.67822,0.0881 1.03358,0.10659 z m 14.29048,-6.0603 c 1.18035,-0.0482 2.29521,-0.28831 3.29845,-0.70988 -0.87412,-0.37036 -1.7589,-0.77201 -2.65281,-1.20042 -0.17173,0.66682 -0.40031,1.31314 -0.64564,1.9103 z m -5.37912,7.04329 c 2.92128,1.842 5.94262,3.246 8.7676,4.07364 0.95084,-2.47803 1.2317,-5.60539 0.72065,-8.86186 -1.72416,0.64732 -3.62697,0.91652 -5.57738,0.75328 -1.17305,1.82572 -2.52575,3.12426 -3.91087,4.03494 z m 14.99315,-8.82775 c 2.45191,0.61072 5.54452,1.05299 8.35912,0.5329 -0.0214,-1.67307 -0.19377,-3.34962 -0.3894,-4.94841 -0.75533,-5.43705 -3.70812,-9.56697 -7.3272,-12.43278 2.46375,4.88993 3.69373,10.54923 0.22176,15.72611 -0.2661,0.38984 -0.53979,0.75735 -0.86428,1.12218 z m 14.58139,-3.59642 c 1.77592,-2.9835 -0.0505,-6.29548 -1.34117,-8.0348 -0.003,-0.0134 -0.0104,-0.0313 -0.0152,-0.0448 -2.28439,-3.04626 -6.07458,-5.82882 -10.65034,-7.55092 4.16524,3.29802 7.54027,8.08192 8.4,14.41085 0.2251,1.53888 0.36291,2.9679 0.4195,4.30489 1.218,-0.66926 2.3234,-1.66914 3.18722,-3.08535 z m -12.44575,16.89038 c 4.05447,-1.27159 5.71379,-5.18274 6.09797,-9.61682 -3.04659,0.42462 -6.61794,0.0406 -10.62318,-1.17766 -0.0569,-0.0204 -0.11373,-0.041 -0.16904,-0.0571 -0.04,0.0285 -0.0818,0.0527 -0.12336,0.077 0.81452,4.00077 0.58631,7.86812 -0.5241,11.04874 1.9885,0.275 3.76432,0.21848 5.34173,-0.27404 z m -11.42172,3.79647 c 0.51991,-0.37661 1.05408,-0.85776 1.46843,-1.39783 -3.47169,-1.11594 -7.09606,-2.97268 -10.48934,-5.32202 -0.40817,0.1191 -0.82099,0.22471 -1.19355,0.30192 0.0104,0.0313 -0.0249,0.0733 -0.0142,0.10464 0.73158,2.29377 0.88802,4.50928 0.57439,6.51591 3.86861,1.54914 7.19383,1.50333 9.65433,-0.20257 z m -17.64714,5.8675 c 1.74752,-0.72499 3.38959,-2.05231 4.27535,-3.98959 -1.9411,-1.01408 -4.05629,-2.39274 -6.41911,-4.20557 -0.61671,-0.49297 -1.33898,-1.14942 -2.10236,-1.9265 -1.03574,0.47253 -2.16485,0.81733 -3.34573,1.01019 1.65925,1.50403 2.57101,4.18024 2.51908,7.39415 -0.0367,0.77043 -0.11051,1.57841 -0.23348,2.38822 1.87475,0.2339 3.68668,-0.009 5.30625,-0.6709 z m -15.22638,2.43498 c -0.10268,0.7231 -0.67548,1.23736 -1.40651,1.28696 2.05831,1.3581 3.8122,1.82266 5.22209,1.27752 0.92605,-0.3554 1.6862,-1.19776 2.22859,-2.24018 -1.9513,-0.75133 -3.80252,-1.94067 -5.46581,-3.6029 -0.18398,1.06992 -0.40809,2.16848 -0.57836,3.2786 z m 1.32336,-7.09263 c 1.62255,2.27446 3.55597,3.70503 5.63621,4.5421 0.062,-0.54971 0.11952,-1.11279 0.13385,-1.65619 0.0376,-2.67052 -0.77877,-4.92045 -2.06156,-5.46575 -0.81878,-0.35432 -1.99867,-0.0122 -3.36855,0.9432 -0.11585,0.53809 -0.23019,1.08066 -0.33995,1.63664 z m 18.35413,-15.20844 c 1.47197,1.39331 3.0612,2.69185 4.70785,3.8661 1.33324,-0.62375 2.50766,-1.56738 3.43693,-2.79147 -2.78945,-0.86967 -5.39748,-2.52418 -7.44803,-4.73761 -0.0678,1.26469 -0.29545,2.49909 -0.69675,3.66298 z m -3.90069,1.28388 c -1.97746,-1.99897 -4.44351,-2.94393 -7.26313,-2.73126 -0.63713,0.0326 -1.33926,0.16706 -1.97844,0.33993 0.41007,0.61823 0.8232,1.24537 1.23174,1.85913 1.88469,1.28762 3.99333,2.35434 6.13707,3.08499 0.7322,-0.77801 1.33853,-1.6328 1.87276,-2.55279 z m -12.49995,6.19326 c 1.87674,0.53242 3.73276,0.41867 5.51836,-0.19465 -1.09528,-1.31222 -2.19917,-2.79603 -3.28273,-4.36657 -0.19489,-0.13306 -0.39287,-0.27503 -0.5893,-0.41257 -0.6014,1.60108 -1.1368,3.24946 -1.64633,4.97379 z m -3.15961,-3.12703 c -0.0976,0.59171 0.0282,1.10732 0.4388,1.58076 0.48615,-1.64656 1.00125,-3.20825 1.58688,-4.70918 -1.15463,1.00171 -1.87117,2.1184 -2.02572,3.12843 z m 7.81525,-8.82065 c 0.14317,-0.0189 0.24163,-0.0226 0.38635,-0.0368 0.87573,-0.064 2.07888,-0.045 3.47493,0.24721 -0.77297,-1.09792 -1.49971,-2.2066 -2.17418,-3.30817 -0.56218,0.98434 -1.15536,2.02414 -1.6871,3.09784 z m 9.23405,1.93015 c 0.44677,-2.64038 0.0953,-6.59942 -4.81287,-9.15071 -0.27066,0.37643 -0.58144,0.78147 -0.846,1.17578 0.0152,0.0448 0.0304,0.0894 0.0904,0.1188 1.38233,2.74025 3.28809,5.4069 5.56853,7.85612 z M 290.843,161.56968 c -0.87806,1.5208 0.16959,4.88866 2.08986,8.62242 1.07164,-2.26987 2.21936,-4.31633 3.38786,-6.15549 -0.45011,-1.02841 -0.88193,-2.00323 -1.20157,-2.94145 -2.27068,-0.51787 -3.81299,-0.36141 -4.27615,0.47452 z m 7.53257,-14.33396 c -1.55127,1.74016 -2.15795,4.35028 -1.71285,7.5594 1.65808,-0.25573 3.54814,-0.41597 5.72097,-0.47809 -0.59775,-1.46178 -0.89086,-2.90769 -0.85356,-4.26171 0.10694,-1.88139 0.52565,-3.57976 1.22502,-5.03967 -1.75355,0.26832 -3.29192,1.02177 -4.37958,2.22007 z"
     id="path1580"
     inkscape:transform-center-x="41.304618"
     inkscape:transform-center-y="-31.54179" />
  <path
     style="fill:#505050;fill-opacity:1;stroke:none;stroke-width:3.94316602"
     d="m 16.549249,299.53212 c 5.78068,-1.45898 11.6836,2.01101 13.16228,7.80747 l 23.00443,90.37736 c 1.77442,6.74282 4.52282,11.98723 8.64737,16.443 4.70814,5.12612 11.61262,7.92576 19.43587,7.92576 h 72.112611 c 5.98179,0 10.82399,4.8501 10.82399,10.80428 0,5.99362 -4.8422,10.8437 -10.82399,10.8437 h -43.46946 v 59.22636 l 44.35273,9.54246 c 2.44871,0.47319 4.06146,2.83909 3.60405,5.28384 -0.41009,2.16874 -2.3028,3.66715 -4.42817,3.66715 -0.27996,0 -0.55994,-0.0395 -0.8399,-0.0788 l -51.11131,-7.96519 -51.107371,7.96519 c -0.27998,0.0395 -0.56387,0.0788 -0.83595,0.0788 -2.12932,0 -4.02598,-1.49841 -4.42818,-3.66715 -0.46135,-2.44475 1.1514,-4.81065 3.60011,-5.28384 l 44.34879,-9.54246 v -59.22636 h -11.79795 c -13.73405,0 -26.61637,-5.40213 -35.34654,-14.86573 -6.52989,-7.09769 -11.00538,-15.45721 -13.70645,-25.70943 L 8.7220659,312.70229 c -1.474744,-5.79645 2.0267851,-11.7112 7.8271831,-13.17017 z"
     id="path2410"
     inkscape:connector-curvature="0" />
  <g
     id="g3761"
     style="fill:#505050;fill-opacity:1"
     transform="matrix(3.7198904,0,0,3.7198904,-615.60181,-2254.7188)">
    <path
       inkscape:connector-curvature="0"
       id="path2406"
       d="m 224.05887,698.03431 h 17.874 29.4122 7.1982 v 48.81 h -36.6104 v -42.71 h -17.874 z"
       style="fill:#505050;fill-opacity:1;stroke:none" />
    <g
       transform="matrix(-1,0,0,1,362.38897,-515.90569)"
       id="g2436"
       style="fill:#505050;fill-opacity:1">
      <path
         style="fill:#505050;fill-opacity:1;stroke:none"
         d="M 83.8457,1262.75 H 61.7773 v -1.37 h 22.0684 z"
         id="path2420"
         inkscape:connector-curvature="0" />
      <path
         style="fill:#505050;fill-opacity:1;stroke:none"
         d="M 83.8457,1260 H 61.7773 v -1.37 h 22.0684 z"
         id="path2422"
         inkscape:connector-curvature="0" />
      <path
         style="fill:#505050;fill-opacity:1;stroke:none"
         d="m 68.4219,1256.81 -21.5449,-4.78 0.2968,-1.34 21.545,4.78 z"
         id="path2424"
         inkscape:connector-curvature="0" />
      <path
         style="fill:#505050;fill-opacity:1;stroke:none"
         d="m 85.7617,1239.84 -14.6279,16.52 -1.0283,-0.91 14.6289,-16.52 z"
         id="path2426"
         inkscape:connector-curvature="0" />
      <path
         style="fill:#505050;fill-opacity:1;stroke:none"
         d="M 59.0693,1258.1 H 37 v -1.38 h 22.0693 z"
         id="path2428"
         inkscape:connector-curvature="0" />
      <path
         style="fill:#505050;fill-opacity:1;stroke:none"
         d="M 59.6797,1262.37 H 37.6104 v -1.38 h 22.0693 z"
         id="path2430"
         inkscape:connector-curvature="0" />
      <path
         style="fill:#505050;fill-opacity:1;stroke:none"
         d="M 102.761,1213.63 H 80.6924 v -1.37 h 22.0686 z"
         id="path2432"
         inkscape:connector-curvature="0" />
      <path
         style="fill:#505050;fill-opacity:1;stroke:none"
         d="M 102.761,1210.88 H 80.6924 v -1.37 h 22.0686 z"
         id="path2434"
         inkscape:connector-curvature="0" />
    </g>
  </g>
</svg>
