<?xml version="1.0" encoding="UTF-8" standalone="no"?>
<svg
   xmlns:dc="http://purl.org/dc/elements/1.1/"
   xmlns:cc="http://creativecommons.org/ns#"
   xmlns:rdf="http://www.w3.org/1999/02/22-rdf-syntax-ns#"
   xmlns:svg="http://www.w3.org/2000/svg"
   xmlns="http://www.w3.org/2000/svg"
   xmlns:sodipodi="http://sodipodi.sourceforge.net/DTD/sodipodi-0.dtd"
   xmlns:inkscape="http://www.inkscape.org/namespaces/inkscape"
   style="fill-rule:evenodd"
   id="svg5520"
   version="1.1"
   viewBox="0 0 600 599.99999"
   height="600pt"
   width="600pt"
   sodipodi:docname="everything-is-great.svg"
   inkscape:version="0.92.2 5c3e80d, 2017-08-06">
  <sodipodi:namedview
     pagecolor="#ffffff"
     bordercolor="#666666"
     borderopacity="1"
     objecttolerance="10"
     gridtolerance="10"
     guidetolerance="10"
     inkscape:pageopacity="0"
     inkscape:pageshadow="2"
     inkscape:window-width="640"
     inkscape:window-height="480"
     id="namedview3836"
     showgrid="false"
     inkscape:zoom="0.834386"
     inkscape:cx="426.51136"
     inkscape:cy="335.42893"
     inkscape:current-layer="svg5520" />
  <metadata
     id="metadata5526">
    <rdf:RDF>
      <cc:Work
         rdf:about="">
        <dc:format>image/svg+xml</dc:format>
        <dc:type
           rdf:resource="http://purl.org/dc/dcmitype/StillImage" />
        <dc:title />
        <dc:title />
      </cc:Work>
    </rdf:RDF>
  </metadata>
  <defs
     id="defs5524" />
  <g
     transform="translate(0,-241.89001)"
     id="g5518"
     style="fill:#505050;fill-opacity:1">
    <g
       transform="matrix(3.67636,0,0,3.67636,-314.75085,-3291.0982)"
       id="g5328"
       style="fill:#505050;fill-opacity:1">
      <g
         transform="translate(-2.183272,-23.53082)"
         id="g6089"
         style="fill:#505050;fill-opacity:1">
        <path
           style="fill:#505050;fill-opacity:1;stroke:none"
           d="m 215.684,1060.2 -31.456,-51.35 -3.602,2.21 4.112,6.71 -16.616,10.18 2.256,3.68 16.617,-10.17 18.715,30.55 -16.617,10.18 2.256,3.68 16.618,-10.18 4.114,6.72 z"
           id="path5296" />
        <path
           style="fill:#505050;fill-opacity:1;stroke:none"
           d="m 235.185,1018.04 -1.656,-11.51 c -2.385,0.34 -4.221,2.09 -4.796,4.28 l -0.878,0.13 0.644,4.47 0.877,-0.12 c 1.171,1.93 3.426,3.09 5.809,2.75 z"
           id="path5298" />
        <path
           style="fill:#505050;fill-opacity:1;stroke:none"
           d="m 236.814,1040.91 11.536,1.44 c 0.298,-2.39 -0.9,-4.62 -2.862,-5.76 l 0.109,-0.88 -4.486,-0.56 -0.11,0.88 c -2.18,0.62 -3.89,2.49 -4.187,4.88 z"
           id="path5300" />
        <path
           style="fill:#505050;fill-opacity:1;stroke:none"
           d="m 212.076,1010.67 c 1.288,-2.08 3.972,-1.38 3.972,-1.38 l -3.863,6.25 -0.431,0.69 -3.863,6.24 c 0,0 -1.825,-2.09 -0.537,-4.17 z"
           id="path5302" />
        <path
           style="fill:#505050;fill-opacity:1;stroke:none"
           d="m 218.094,1048.14 6.291,-9.98 c -1.155,-0.73 -4.578,-0.08 -6.009,0.97 l -0.891,-0.56 -1.999,3.17 0.892,0.56 c -0.333,1.75 0.561,5.11 1.716,5.84 z"
           id="path5304" />
        <g
           id="g5310"
           style="fill:#505050;fill-opacity:1">
          <path
             style="fill:#505050;fill-opacity:1;stroke:none"
             d="m 231.453,1053.85 -8.465,0.85 -0.231,-1.13 -0.145,-0.72 -0.231,-1.14 8.126,-2.51 -0.219,-1.09 -9.187,2.85 0.429,2.11 0.145,0.72 0.431,2.11 9.566,-0.96 z"
             id="path5306" />
          <path
             style="fill:#505050;fill-opacity:1;stroke:none"
             d="m 226.512,1049.86 -4.771,1.48 0.33,1.62 0.145,0.72 0.329,1.62 4.968,-0.5 z"
             id="path5308" />
        </g>
        <path
           style="fill:#505050;fill-opacity:1;stroke:none"
           d="m 237.316,1030.81 -19.916,-5.19 0.311,-1.2 19.917,5.19 z"
           id="path5312" />
        <path
           style="fill:#505050;fill-opacity:1;stroke:none"
           d="m 235.588,1038.93 -17.917,-10.13 0.751,-1.33 17.916,10.13 z"
           id="path5314" />
        <path
           style="fill:#505050;fill-opacity:1;stroke:none"
           d="m 241.421,1019.94 c 0,0.84 -0.68,1.52 -1.524,1.52 -0.842,0 -1.524,-0.68 -1.524,-1.52 0,-0.84 0.682,-1.52 1.524,-1.52 0.844,0 1.524,0.68 1.524,1.52 z"
           id="path5316" />
        <path
           style="fill:#505050;fill-opacity:1;stroke:none"
           d="m 240.66,1013.84 c 0,0.42 -0.342,0.76 -0.763,0.76 -0.421,0 -0.762,-0.34 -0.762,-0.76 0,-0.42 0.341,-0.76 0.762,-0.76 0.421,0 0.763,0.34 0.763,0.76 z"
           id="path5318" />
        <path
           style="fill:#505050;fill-opacity:1;stroke:none"
           d="m 248.282,1048.15 c 0,0.84 -0.681,1.52 -1.524,1.52 -0.843,0 -1.524,-0.68 -1.524,-1.52 0,-0.85 0.681,-1.53 1.524,-1.53 0.843,0 1.524,0.68 1.524,1.53 z"
           id="path5320" />
        <path
           style="fill:#505050;fill-opacity:1;stroke:none"
           d="m 240.66,1058.06 c 0,0.84 -0.682,1.52 -1.524,1.52 -0.842,0 -1.525,-0.68 -1.525,-1.52 0,-0.85 0.683,-1.53 1.525,-1.53 0.842,0 1.524,0.68 1.524,1.53 z"
           id="path5322" />
      </g>
      <g
         transform="translate(0,-21.468841)"
         id="g6073"
         style="fill:#505050;fill-opacity:1">
        <path
           style="fill:#505050;fill-opacity:1;stroke:none"
           d="m 134.58237,1046.058 c 1.651,3.8 -0.093,8.21 -3.891,9.86 -3.801,1.65 -8.219,-0.09 -9.869,-3.89 -1.65,-3.8 0.092,-8.22 3.893,-9.87 3.798,-1.65 8.217,0.1 9.867,3.9 z"
           id="path5324" />
        <path
           style="fill:#505050;fill-opacity:1;stroke:none"
           d="m 151.23637,1037.128 c 0.343,-1.57 1.89,-2.56 3.455,-2.21 1.565,0.34 2.604,1.83 2.261,3.39 -3.3,13.24 -8.891,18.58 -15.805,27.45 l -10.837,18.07 9.683,6.43 c 3.041,2.29 4.038,4.94 2.535,8.73 l -8.917,18.01 c -0.768,1.95 -2.978,2.91 -4.933,2.15 -1.956,-0.77 -2.918,-2.98 -2.149,-4.94 l 6.265,-16.09 -11.118,-4.93 -5.316,10.45 c -1.452,2.66 -3.424,4.06 -6.179,5.44 l -17.685606,6.74 c -1.9302,0.83 -4.167,-0.07 -4.9976,-2 -0.8286,-1.93 0.063,-4.17 1.9942,-5 l 16.789006,-9.07 c 0,0 3.897,-13.22 6.438,-18.64 2.297,-4.9 9.487,-15.41 9.487,-15.41 2.965,-4.75 7.33,-6.94 10.099,-9.07 4.52,-3.62 14.698,-8.01 18.931,-19.5 z"
           id="path5326" />
      </g>
    </g>
  </g>
</svg>
